<svg width="105" height="22" viewBox="0 0 105 22" xmlns="http://www.w3.org/2000/svg" xmlns:xlink="http://www.w3.org/1999/xlink"><title>C3A5857E-1C6C-4B9C-98BD-B68D1A3F35A0</title><defs><path id="a" d="M0 .09h104.763v21.758H0z"/></defs><g fill="none" fill-rule="evenodd"><mask id="b" fill="#fff"><use xlink:href="#a"/></mask><path d="M9.903 3.403v18.035s-3.496 0-3.496-1.873V3.403H2.822c-2.579-.064-2.783.92-2.783.92S-.602.55 3.28.551h10.03C15.478.55 16.48.09 16.48.09c0 1.498-.344 3.313-2.715 3.313H9.903zM23.17 13.659c-.658 1.527-5.334.692-5.334 3.255 0 1.297.943 1.96 2.572 1.96 1.515 0 2.761-.519 2.761-.519V13.66zm-.19-2.938c0-1.038-.571-1.96-2.772-1.96-2.4 0-4.572.836-4.572 3.256-.829-1.123-1.086-2.017-1.086-2.794 0-2.507 3.343-3.256 5.686-3.256 4.2 0 6.43 1.786 6.43 4.927v10.544c-.744-.375-1.486-.461-2.201-.461-1.429 0-2.857.519-4.486.519-2.943 0-5.829-1.096-5.829-4.523 0-5.389 7.658-3.976 8.83-6.252zm17.132.517c0-1.527-.715-2.39-2.744-2.39-1.457 0-3.014.402-3.014.402v12.101s-3.413 0-3.413-1.872V5.967s1.113.605 2.57.605c1.401 0 2.716-.605 4.258-.605 2.944 0 5.89 1.008 5.89 4.753v10.631s-3.547-.058-3.547-1.872v-8.24zm7.811-5.128c.26 0 4.053.03 4.053 1.874v13.37s-4.053 0-4.053-1.873V6.111zM67.1 12.161h-7.596v9.277s-3.477 0-3.477-1.873V.262s3.477 0 3.477 1.872V9.28H67.1V.262s3.523 0 3.523 1.872v19.304s-3.523 0-3.523-1.873v-7.404zm11.547 4.149c0 1.526.714 2.39 2.743 2.39 1.458 0 2.919-.402 2.919-.402V6.11s3.51 0 3.51 1.872v13.513s-1.115-.606-2.571-.606c-1.4 0-2.715.606-4.258.606-2.943 0-5.84-1.01-5.84-4.754V6.11s3.497.057 3.497 1.872v8.326zm16.926 2.34c.372.173 1.115.46 2.4.46 2.372 0 3.245-.87 3.245-2.684v-4.527c0-1.872-1.188-2.701-2.559-2.701-1.543 0-3.086.98-3.086 2.391v7.06zm9.19-1.965c0 3.199-2.36 5.163-6.733 5.163-2.371 0-3.758-.951-5.986-1.037V.374c.257 0 3.53-.029 3.53 2.16v4.742s1.085-.957 3.457-.957c3.056 0 5.732 1.724 5.732 4.834v5.532zM47.938 2.483a2.21 2.21 0 1 0 4.42 0 2.21 2.21 0 0 0-4.42 0" fill="#636363" mask="url(#b)"/></g></svg>